<?xml version="1.0" standalone="no"?>
<!DOCTYPE svg PUBLIC "-//W3C//DTD SVG 20010904//EN"
 "http://www.w3.org/TR/2001/REC-SVG-20010904/DTD/svg10.dtd">
<svg version="1.0" xmlns="http://www.w3.org/2000/svg"
 width="512.000000pt" height="512.000000pt" viewBox="0 0 512.000000 512.000000"
 preserveAspectRatio="xMidYMid meet">
<metadata>
Created by potrace 1.11, written by Peter Selinger 2001-2013
</metadata>
<g transform="translate(0.000000,512.000000) scale(0.100000,-0.100000)"
fill="#000000" stroke="none">
<path d="M2375 4794 c-342 -36 -645 -131 -922 -290 -526 -302 -907 -799 -1058
-1379 -57 -217 -70 -323 -70 -565 0 -242 13 -348 70 -565 182 -700 692 -1266
1380 -1532 113 -43 317 -96 460 -120 154 -25 496 -25 650 0 287 47 545 137
782 273 526 302 907 799 1058 1379 57 217 70 323 70 565 0 242 -13 348 -70
565 -200 771 -811 1388 -1579 1595 -189 51 -331 71 -541 75 -104 2 -208 1
-230 -1z m1044 -1138 l23 -24 -26 -287 c-14 -158 -28 -291 -31 -296 -10 -15
-48 -10 -83 11 -51 31 -72 75 -72 150 0 111 -53 195 -150 239 -42 19 -65 21
-348 21 -329 0 -346 -2 -406 -58 -62 -58 -66 -79 -66 -385 0 -229 3 -283 15
-307 28 -54 55 -60 259 -60 106 0 197 5 213 11 40 15 92 67 114 114 12 26 19
63 19 107 0 81 17 98 73 74 68 -28 67 -23 67 -399 l0 -339 -34 -34 c-35 -35
-75 -44 -93 -21 -6 6 -13 41 -16 76 -7 84 -42 136 -117 174 -55 28 -56 28
-227 25 -155 -3 -174 -5 -200 -24 -59 -43 -63 -64 -63 -337 0 -296 5 -323 70
-388 67 -67 94 -71 445 -67 332 3 340 5 436 95 62 58 81 93 115 216 14 52 34
108 44 124 20 34 75 63 118 63 59 0 59 -4 7 -328 -26 -163 -54 -307 -62 -320
l-14 -22 -927 2 -927 3 -3 40 c-3 45 22 94 62 120 13 9 52 20 86 25 74 10 124
45 151 104 18 39 19 81 19 829 0 841 1 826 -48 881 -24 27 -91 56 -132 56 -19
0 -50 9 -68 20 -33 20 -72 74 -72 99 0 41 -4 40 931 41 l896 0 22 -24z"/>
</g>
</svg>
